<svg width="37" height="42" viewBox="0 0 37 42" fill="none" xmlns="http://www.w3.org/2000/svg">
<path d="M9.95519 9.74699L22.5976 31.9712L33.7358 9.74699H33.4157L23.8459 28.5448L13.5079 9.74699H9.95519Z" fill="black"/>
<path d="M35.3841 15.6095C34.904 10.9415 32.7916 7.12221 29.0469 4.05735C25.2541 1.03965 20.9813 -0.280601 16.1324 0.0494626C11.2834 0.426674 7.34669 2.40705 4.22609 5.94342C1.10549 9.4798 -0.190757 13.582 0.289336 18.25C0.817437 22.918 2.92984 26.7845 6.72257 29.8022C10.4673 32.8199 14.7881 34.1401 19.6371 33.8101C24.486 33.4329 28.4227 31.4525 31.5433 27.9161C34.6159 24.3797 35.9122 20.2775 35.3841 15.6095ZM32.2155 15.6095C31.6874 19.9003 29.719 23.6725 26.2143 27.0202C22.7096 30.368 19.0129 32.2069 15.1242 32.4898C12.9638 32.6313 10.9954 32.1126 9.12303 30.8867C7.25067 29.6607 5.76239 27.869 4.75419 25.4642C3.746 23.1066 3.36193 20.5133 3.69799 17.7313C4.17808 13.4405 6.05044 9.66841 9.36308 6.41494C12.6277 3.16147 16.1324 1.36971 19.8771 1.0868C23.2377 0.803888 26.2623 2.07698 28.9028 4.95324C31.5433 7.82949 32.6476 11.413 32.2155 15.6095Z" fill="black"/>
<path d="M0.46857 41.5549C0.589767 41.6789 0.738275 41.741 0.914096 41.741C1.08992 41.741 1.23842 41.6789 1.35962 41.5549C1.48082 41.4275 1.54142 41.2716 1.54142 41.0871C1.54142 40.9011 1.48082 40.746 1.35962 40.6219C1.23842 40.4962 1.08992 40.4333 0.914096 40.4333C0.738275 40.4333 0.589767 40.4962 0.46857 40.6219C0.34908 40.7443 0.289336 40.8994 0.289336 41.0871C0.289336 41.2749 0.34908 41.4308 0.46857 41.5549ZM1.56958 41.7385C1.39547 41.9128 1.17697 42 0.914096 42C0.651218 42 0.432723 41.9128 0.25861 41.7385C0.0862032 41.5608 0 41.3436 0 41.0871C0 40.829 0.0862032 40.6127 0.25861 40.4383C0.432723 40.2623 0.651218 40.1743 0.914096 40.1743C1.17697 40.1743 1.39547 40.2623 1.56958 40.4383C1.74369 40.6127 1.83075 40.829 1.83075 41.0871C1.83075 41.3453 1.74369 41.5624 1.56958 41.7385Z" fill="black"/>
<path d="M3.74836 41.9774H3.48207L2.71136 40.207H3.02374L3.61777 41.5951L4.21181 40.207H4.51651L3.74836 41.9774Z" fill="black"/>
<path d="M6.88198 41.9673H5.57357V40.207H6.84869V40.461H5.85522V40.9011H6.66434V41.155H5.85522V41.7133H6.88198V41.9673Z" fill="black"/>
<path d="M8.26369 41.9673H7.98203V40.207H8.79883C8.98318 40.207 9.12743 40.2531 9.23155 40.3453C9.33739 40.4392 9.3903 40.5599 9.3903 40.7074C9.3903 40.8298 9.35531 40.9346 9.28532 41.0218C9.21704 41.1073 9.1223 41.1643 9.00111 41.1928L9.56442 41.9673H9.22387L8.68361 41.2229H8.26369V41.9673ZM8.26369 40.461V40.979H8.78091C8.88333 40.979 8.9627 40.9564 9.01903 40.9111C9.07707 40.8658 9.10609 40.8013 9.10609 40.7175C9.10609 40.637 9.07707 40.5741 9.01903 40.5289C8.9627 40.4836 8.88333 40.461 8.78091 40.461H8.26369Z" fill="black"/>
<path d="M11.1939 42C10.9208 42 10.6963 41.9371 10.5205 41.8114V41.5121C10.5905 41.5725 10.6869 41.6261 10.8098 41.6731C10.9327 41.7183 11.0556 41.741 11.1785 41.741C11.2997 41.741 11.3987 41.7175 11.4756 41.6706C11.5541 41.6236 11.5933 41.5599 11.5933 41.4794C11.5933 41.4157 11.5669 41.3613 11.514 41.316C11.4935 41.2975 11.4628 41.2799 11.4218 41.2632C11.3723 41.2397 11.2904 41.212 11.176 41.1802L11.1401 41.1701C11.0428 41.1433 10.9652 41.119 10.9071 41.0972C10.861 41.0804 10.8013 41.0511 10.7279 41.0092C10.605 40.9337 10.5435 40.8156 10.5435 40.6546C10.5435 40.5088 10.6016 40.3922 10.7177 40.3051C10.8354 40.2179 10.9942 40.1743 11.1939 40.1743C11.4107 40.1743 11.6019 40.2229 11.7675 40.3201V40.5968C11.5848 40.4878 11.3953 40.4333 11.199 40.4333C11.0795 40.4333 10.9882 40.4543 10.9251 40.4962C10.8636 40.5364 10.8329 40.5901 10.8329 40.6571C10.8329 40.7141 10.8679 40.7669 10.9379 40.8156C10.9481 40.8223 10.9626 40.8298 10.9814 40.8382C11.0002 40.8449 11.0215 40.8524 11.0454 40.8608C11.0693 40.8692 11.0864 40.8751 11.0966 40.8784L11.3014 40.9363C11.4261 40.9731 11.5353 41.0167 11.6292 41.067C11.7879 41.1509 11.8724 41.2866 11.8827 41.4744C11.8827 41.637 11.817 41.7653 11.6855 41.8592C11.5541 41.9531 11.3902 42 11.1939 42Z" fill="black"/>
<path d="M13.3035 41.9673H13.0218V40.207H13.3035V41.9673Z" fill="black"/>
<path d="M15.8484 41.9673H14.4145V41.7712L15.4233 40.461H14.4657V40.207H15.8074V40.4006L14.8011 41.7133H15.8484V41.9673Z" fill="black"/>
<path d="M18.2517 41.9673H16.9433V40.207H18.2184V40.461H17.2249V40.9011H18.034V41.155H17.2249V41.7133H18.2517V41.9673Z" fill="black"/>
<path d="M19.9842 41.9673H19.3517V40.207H19.9842C20.2709 40.207 20.5056 40.2891 20.6883 40.4534C20.8709 40.6177 20.9623 40.829 20.9623 41.0871C20.9623 41.347 20.8709 41.5591 20.6883 41.7234C20.5074 41.886 20.2726 41.9673 19.9842 41.9673ZM19.6334 40.461V41.7133H19.9586C20.1839 41.7133 20.3588 41.6572 20.4835 41.5448C20.6098 41.4308 20.6729 41.2783 20.6729 41.0871C20.6729 40.896 20.6098 40.7435 20.4835 40.6295C20.3588 40.5171 20.1839 40.461 19.9586 40.461H19.6334Z" fill="black"/>
<path d="M24.1119 42C23.8388 42 23.6143 41.9371 23.4385 41.8114V41.5121C23.5085 41.5725 23.6049 41.6261 23.7278 41.6731C23.8507 41.7183 23.9736 41.741 24.0965 41.741C24.2177 41.741 24.3167 41.7175 24.3935 41.6706C24.4721 41.6236 24.5113 41.5599 24.5113 41.4794C24.5113 41.4157 24.4849 41.3613 24.4319 41.316C24.4115 41.2975 24.3807 41.2799 24.3398 41.2632C24.2903 41.2397 24.2083 41.212 24.094 41.1802L24.0581 41.1701C23.9608 41.1433 23.8832 41.119 23.8251 41.0972C23.779 41.0804 23.7193 41.0511 23.6459 41.0092C23.523 40.9337 23.4615 40.8156 23.4615 40.6546C23.4615 40.5088 23.5196 40.3922 23.6356 40.3051C23.7534 40.2179 23.9122 40.1743 24.1119 40.1743C24.3287 40.1743 24.5199 40.2229 24.6854 40.3201V40.5968C24.5028 40.4878 24.3133 40.4333 24.117 40.4333C23.9975 40.4333 23.9062 40.4543 23.843 40.4962C23.7816 40.5364 23.7509 40.5901 23.7509 40.6571C23.7509 40.7141 23.7859 40.7669 23.8558 40.8156C23.8661 40.8223 23.8806 40.8298 23.8994 40.8382C23.9181 40.8449 23.9395 40.8524 23.9634 40.8608C23.9873 40.8692 24.0043 40.8751 24.0146 40.8784L24.2194 40.9363C24.344 40.9731 24.4533 41.0167 24.5472 41.067C24.7059 41.1509 24.7904 41.2866 24.8007 41.4744C24.8007 41.637 24.7349 41.7653 24.6035 41.8592C24.4721 41.9531 24.3082 42 24.1119 42Z" fill="black"/>
<path d="M25.7387 40.461V40.207H27.2059V40.461H26.6118V41.9673H26.3302V40.461H25.7387Z" fill="black"/>
<path d="M28.2574 41.2229V40.207H28.539V41.233C28.539 41.3956 28.5809 41.5214 28.6645 41.6102C28.7481 41.6974 28.8625 41.741 29.0076 41.741C29.1527 41.741 29.2671 41.6974 29.3507 41.6102C29.4361 41.5214 29.4787 41.3956 29.4787 41.233V40.207H29.7604V41.2229C29.7604 41.4694 29.6904 41.6605 29.5504 41.7963C29.4088 41.9321 29.2278 42 29.0076 42C28.7874 42 28.6065 41.9329 28.4648 41.7988C28.3265 41.663 28.2574 41.4711 28.2574 41.2229Z" fill="black"/>
<path d="M31.5814 41.9673H30.9489V40.207H31.5814C31.8682 40.207 32.1029 40.2891 32.2855 40.4534C32.4682 40.6177 32.5595 40.829 32.5595 41.0871C32.5595 41.347 32.4682 41.5591 32.2855 41.7234C32.1046 41.886 31.8699 41.9673 31.5814 41.9673ZM31.2306 40.461V41.7133H31.5558C31.7811 41.7133 31.9561 41.6572 32.0807 41.5448C32.207 41.4308 32.2702 41.2783 32.2702 41.0871C32.2702 40.896 32.207 40.7435 32.0807 40.6295C31.9561 40.5171 31.7811 40.461 31.5558 40.461H31.2306Z" fill="black"/>
<path d="M34.0044 41.9673H33.7228V40.207H34.0044V41.9673Z" fill="black"/>
<path d="M35.6378 41.5549C35.759 41.6789 35.9075 41.741 36.0833 41.741C36.2592 41.741 36.4077 41.6789 36.5289 41.5549C36.6501 41.4275 36.7107 41.2716 36.7107 41.0871C36.7107 40.9011 36.6501 40.746 36.5289 40.6219C36.4077 40.4962 36.2592 40.4333 36.0833 40.4333C35.9075 40.4333 35.759 40.4962 35.6378 40.6219C35.5183 40.7443 35.4586 40.8994 35.4586 41.0871C35.4586 41.2749 35.5183 41.4308 35.6378 41.5549ZM36.7388 41.7385C36.5647 41.9128 36.3462 42 36.0833 42C35.8205 42 35.602 41.9128 35.4279 41.7385C35.2555 41.5608 35.1693 41.3436 35.1693 41.0871C35.1693 40.829 35.2555 40.6127 35.4279 40.4383C35.602 40.2623 35.8205 40.1743 36.0833 40.1743C36.3462 40.1743 36.5647 40.2623 36.7388 40.4383C36.9129 40.6127 37 40.829 37 41.0871C37 41.3453 36.9129 41.5624 36.7388 41.7385Z" fill="black"/>
</svg>
