<svg width="318" height="367" viewBox="0 0 318 367" fill="none" xmlns="http://www.w3.org/2000/svg">
<path d="M85.5608 85.1701L194.217 279.367L289.945 85.1701H287.194L204.945 249.427L116.095 85.1701H85.5608Z" fill="white"/>
<path d="M304.112 136.397C299.986 95.6079 281.83 62.2346 249.646 35.4535C217.049 9.08453 180.326 -2.45191 138.651 0.432209C96.9766 3.72832 63.1418 21.033 36.3215 51.9342C9.50126 82.8354 -1.63947 118.681 2.48672 159.47C7.02554 200.26 25.1808 234.045 57.7778 260.414C89.9621 286.783 127.098 298.32 168.772 295.436C210.447 292.139 244.282 274.835 271.102 243.934C297.51 213.032 308.651 177.187 304.112 136.397ZM276.879 136.397C272.34 173.891 255.423 206.852 225.301 236.105C195.18 265.358 163.408 281.427 129.986 283.899C111.418 285.135 94.5009 280.603 78.4088 269.891C62.3166 259.178 49.5254 243.522 40.8604 222.509C32.1953 201.908 28.8944 179.247 31.7827 154.938C35.9089 117.445 52.0011 84.4834 80.4719 56.0543C108.53 27.6252 138.651 11.9687 170.836 9.49654C199.719 7.02445 225.714 18.1489 248.408 43.2818C271.102 68.4148 280.592 99.728 276.879 136.397Z" fill="white"/>
<path d="M4.02717 363.111C5.0688 364.195 6.34517 364.737 7.85628 364.737C9.36738 364.737 10.6438 364.195 11.6854 363.111C12.727 361.997 13.2478 360.635 13.2478 359.023C13.2478 357.397 12.727 356.042 11.6854 354.958C10.6438 353.859 9.36738 353.31 7.85628 353.31C6.34517 353.31 5.0688 353.859 4.02717 354.958C3.0002 356.028 2.48672 357.383 2.48672 359.023C2.48672 360.664 3.0002 362.026 4.02717 363.111ZM13.4899 364.715C11.9935 366.238 10.1156 367 7.85628 367C5.59696 367 3.71908 366.238 2.22264 364.715C0.740882 363.162 0 361.265 0 359.023C0 356.767 0.740882 354.878 2.22264 353.354C3.71908 351.816 5.59696 351.047 7.85628 351.047C10.1156 351.047 11.9935 351.816 13.4899 353.354C14.9863 354.878 15.7346 356.767 15.7346 359.023C15.7346 361.279 14.9863 363.176 13.4899 364.715Z" fill="white"/>
<path d="M32.2156 366.802H29.927L23.303 351.332H25.9878L31.0933 363.462L36.1988 351.332H38.8175L32.2156 366.802Z" fill="white"/>
<path d="M59.1478 366.714H47.9026V351.332H58.8618V353.552H50.3233V357.397H57.2773V359.617H50.3233V364.495H59.1478V366.714Z" fill="white"/>
<path d="M71.023 366.714H68.6023V351.332H75.6224C77.2068 351.332 78.4465 351.735 79.3414 352.541C80.251 353.361 80.7058 354.416 80.7058 355.705C80.7058 356.775 80.4051 357.69 79.8036 358.452C79.2167 359.199 78.4025 359.697 77.3609 359.946L82.2023 366.714H79.2754L74.6321 360.21H71.023V366.714ZM71.023 353.552V358.078H75.4683C76.3486 358.078 77.0308 357.881 77.5149 357.485C78.0137 357.09 78.2631 356.526 78.2631 355.793C78.2631 355.09 78.0137 354.541 77.5149 354.145C77.0308 353.75 76.3486 353.552 75.4683 353.552H71.023Z" fill="white"/>
<path d="M96.2071 367C93.8597 367 91.9305 366.451 90.4194 365.352V362.737C91.0209 363.264 91.8498 363.733 92.9061 364.143C93.9624 364.539 95.0188 364.737 96.0751 364.737C97.1167 364.737 97.9676 364.532 98.6278 364.121C99.3027 363.711 99.6401 363.155 99.6401 362.451C99.6401 361.895 99.4127 361.419 98.9579 361.023C98.7818 360.862 98.5178 360.708 98.1657 360.562C97.7402 360.356 97.036 360.115 96.0531 359.836L95.745 359.749C94.9087 359.514 94.2412 359.302 93.7424 359.111C93.3463 358.965 92.8328 358.708 92.2019 358.342C91.1456 357.683 90.6175 356.65 90.6175 355.244C90.6175 353.969 91.1163 352.951 92.1139 352.189C93.1262 351.428 94.4906 351.047 96.2071 351.047C98.0703 351.047 99.7135 351.472 101.137 352.321V354.738C99.5667 353.786 97.9383 353.31 96.2511 353.31C95.2242 353.31 94.4393 353.493 93.8964 353.859C93.3683 354.211 93.1042 354.68 93.1042 355.266C93.1042 355.764 93.405 356.225 94.0065 356.65C94.0945 356.709 94.2192 356.775 94.3806 356.848C94.542 356.907 94.7253 356.972 94.9307 357.046C95.1361 357.119 95.2828 357.17 95.3709 357.2L97.1314 357.705C98.2023 358.027 99.1413 358.408 99.9482 358.848C101.313 359.58 102.039 360.767 102.127 362.407C102.127 363.828 101.562 364.949 100.432 365.769C99.3027 366.59 97.8943 367 96.2071 367Z" fill="white"/>
<path d="M114.338 366.714H111.917V351.332H114.338V366.714Z" fill="white"/>
<path d="M136.21 366.714H123.887V365L132.557 353.552H124.327V351.332H135.858V353.024L127.21 364.495H136.21V366.714Z" fill="white"/>
<path d="M156.866 366.714H145.62V351.332H156.58V353.552H148.041V357.397H154.995V359.617H148.041V364.495H156.866V366.714Z" fill="white"/>
<path d="M171.756 366.714H166.32V351.332H171.756C174.22 351.332 176.238 352.05 177.807 353.486C179.377 354.922 180.162 356.767 180.162 359.023C180.162 361.294 179.377 363.147 177.807 364.583C176.252 366.004 174.235 366.714 171.756 366.714ZM168.741 353.552V364.495H171.536C173.472 364.495 174.976 364.004 176.047 363.023C177.133 362.026 177.675 360.693 177.675 359.023C177.675 357.353 177.133 356.02 176.047 355.024C174.976 354.043 173.472 353.552 171.536 353.552H168.741Z" fill="white"/>
<path d="M207.232 367C204.885 367 202.955 366.451 201.444 365.352V362.737C202.046 363.264 202.875 363.733 203.931 364.143C204.987 364.539 206.044 364.737 207.1 364.737C208.141 364.737 208.992 364.532 209.653 364.121C210.327 363.711 210.665 363.155 210.665 362.451C210.665 361.895 210.437 361.419 209.983 361.023C209.807 360.862 209.543 360.708 209.19 360.562C208.765 360.356 208.061 360.115 207.078 359.836L206.77 359.749C205.934 359.514 205.266 359.302 204.767 359.111C204.371 358.965 203.858 358.708 203.227 358.342C202.17 357.683 201.642 356.65 201.642 355.244C201.642 353.969 202.141 352.951 203.139 352.189C204.151 351.428 205.515 351.047 207.232 351.047C209.095 351.047 210.738 351.472 212.161 352.321V354.738C210.592 353.786 208.963 353.31 207.276 353.31C206.249 353.31 205.464 353.493 204.921 353.859C204.393 354.211 204.129 354.68 204.129 355.266C204.129 355.764 204.43 356.225 205.031 356.65C205.119 356.709 205.244 356.775 205.405 356.848C205.567 356.907 205.75 356.972 205.956 357.046C206.161 357.119 206.308 357.17 206.396 357.2L208.156 357.705C209.227 358.027 210.166 358.408 210.973 358.848C212.337 359.58 213.064 360.767 213.152 362.407C213.152 363.828 212.587 364.949 211.457 365.769C210.327 366.59 208.919 367 207.232 367Z" fill="white"/>
<path d="M221.214 353.552V351.332H233.823V353.552H228.718V366.714H226.297V353.552H221.214Z" fill="white"/>
<path d="M242.861 360.21V351.332H245.281V360.298C245.281 361.719 245.641 362.818 246.36 363.594C247.079 364.356 248.062 364.737 249.309 364.737C250.556 364.737 251.539 364.356 252.257 363.594C252.991 362.818 253.358 361.719 253.358 360.298V351.332H255.778V360.21C255.778 362.363 255.177 364.033 253.974 365.22C252.756 366.407 251.201 367 249.309 367C247.416 367 245.861 366.414 244.643 365.242C243.455 364.055 242.861 362.378 242.861 360.21Z" fill="white"/>
<path d="M271.429 366.714H265.994V351.332H271.429C273.894 351.332 275.911 352.05 277.481 353.486C279.051 354.922 279.836 356.767 279.836 359.023C279.836 361.294 279.051 363.147 277.481 364.583C275.926 366.004 273.909 366.714 271.429 366.714ZM268.414 353.552V364.495H271.209C273.146 364.495 274.649 364.004 275.72 363.023C276.806 362.026 277.349 360.693 277.349 359.023C277.349 357.353 276.806 356.02 275.72 355.024C274.649 354.043 273.146 353.552 271.209 353.552H268.414Z" fill="white"/>
<path d="M292.254 366.714H289.834V351.332H292.254V366.714Z" fill="white"/>
<path d="M306.293 363.111C307.334 364.195 308.611 364.737 310.122 364.737C311.633 364.737 312.909 364.195 313.951 363.111C314.992 361.997 315.513 360.635 315.513 359.023C315.513 357.397 314.992 356.042 313.951 354.958C312.909 353.859 311.633 353.31 310.122 353.31C308.611 353.31 307.334 353.859 306.293 354.958C305.266 356.028 304.752 357.383 304.752 359.023C304.752 360.664 305.266 362.026 306.293 363.111ZM315.755 364.715C314.259 366.238 312.381 367 310.122 367C307.862 367 305.984 366.238 304.488 364.715C303.006 363.162 302.265 361.265 302.265 359.023C302.265 356.767 303.006 354.878 304.488 353.354C305.984 351.816 307.862 351.047 310.122 351.047C312.381 351.047 314.259 351.816 315.755 353.354C317.252 354.878 318 356.767 318 359.023C318 361.279 317.252 363.176 315.755 364.715Z" fill="white"/>
</svg>
